#!OML:ASF I:\Actors\actors\Patient Classification 1\Patient 1\Session 1\Subject1.ASF
:FULLY-SPECIFIED
:DEGREES
976
root 1.15455 17.5257 7.76872 10.8283 16.276 -6.60813
lowerback 3.28692 6.85185 -1.85315
upperback -9.69018 9.1636 -0.67164
thorax -12.4791 4.59238 -1.01409
lowerneck -12.6703 -11.5377 -7.92458
upperneck 11.5246 -16.0198 11.7649
head 7.21709 -7.18799 3.27986
rclavicle 2.26615e-014 -3.89618e-014
rhumerus 15.7579 2.418 -83.6867
rradius 55.5718
rwrist 44.728
rhand -26.1881 -47.6455
rfingers 7.12502
rthumb 0.364064 -77.6249
lclavicle 2.26615e-014 -3.89618e-014
lhumerus -44.8345 -18.6421 94.2172
lradius 74.3428
lwrist 14.0451
lhand -26.3128 -22.5431
lfingers 7.12502
lthumb 0.243675 7.43648
rfemur 0.788833 31.1721 18.7295
rtibia -2.24915
rfoot -34.7421 -45.3898
rtoes 23.228
lfemur -4.67514 -47.2996 -13.5523
ltibia -5.14934
lfoot -1.25542 42.4243
ltoes -1.21874
977
root 1.14841 17.5251 7.76189 10.7825 16.1662 -6.71955
lowerback 3.71504 6.85022 -1.69494
upperback -9.80735 9.17111 -0.701722
thorax -12.8475 4.56842 -1.20217
lowerneck -12.5841 -11.6194 -7.79369
upperneck 11.3929 -16.1329 11.6868
head 7.15308 -7.25073 3.22703
rclavicle 4.8255e-014 1.59028e-015
rhumerus 15.6087 1.94973 -83.5501
rradius 56.6411
rwrist 46.6102
rhand -26.9866 -47.773
rfingers 7.12502
rthumb -0.407182 -77.7524
lclavicle 4.8255e-014 1.59028e-015
lhumerus -45.2886 -18.6646 94.1505
lradius 74.4273
lwrist 14.013
lhand -26.5644 -22.6284
lfingers 7.12502
lthumb 0.000643289 7.35138
rfemur 0.725666 31.5638 18.8555
rtibia -2.1722
rfoot -35.0714 -45.5077
rtoes 23.5661
lfemur -4.69952 -47.3488 -13.3161
ltibia -5.21376
lfoot -1.37111 42.5713
ltoes -0.787066
978
root 1.14618 17.5251 7.74817 10.9742 15.8596 -6.11233
lowerback 4.09987 6.87273 -2.2143
upperback -9.85605 9.12356 -0.875053
thorax -13.2032 4.57374 -1.1677
lowerneck -12.4476 -11.6847 -7.71462
upperneck 11.1306 -16.1982 11.593
head 7.03625 -7.30084 3.18874
rclavicle -6.93262e-014 -1.27222e-014
rhumerus 15.9806 1.93001 -82.8344
rradius 57.5409
rwrist 47.6062
rhand -28.6088 -47.9911
rfingers 7.12502
rthumb -1.97386 -77.9617
lclavicle -6.93262e-014 -1.27222e-014
lhumerus -45.5689 -18.6025 94.1131
lradius 74.4349
lwrist 14.0545
lhand -26.9606 -22.8423
lfingers 7.12502
lthumb -0.381988 7.13709
rfemur 0.593862 31.7312 18.0102
rtibia -2.22721
rfoot -35.1131 -45.4231
rtoes 23.8529
lfemur -4.55846 -47.184 -14.1165
ltibia -5.28299
lfoot -1.66089 42.5344
ltoes 0.000208387
979
root 1.14692 17.5308 7.75218 11.2167 16.3222 -6.53217
lowerback 3.81824 6.65211 -1.65225
upperback -9.9622 8.90416 -0.754925
thorax -13.0724 4.42914 -1.26986
lowerneck -12.2961 -11.7287 -7.6315
upperneck 10.8276 -16.2241 11.4583
head 6.89596 -7.33711 3.1448
rclavicle -5.57591e-014 -1.74931e-014
rhumerus 16.7216 1.90724 -81.898
rradius 58.3203
rwrist 48.5962
rhand -30.339 -48.1392
rfingers 7.12502
rthumb -3.64485 -78.0878
lclavicle -5.57591e-014 -1.74931e-014
lhumerus -45.783 -18.5672 94.0611
lradius 74.4715
lwrist 14.1394
lhand -27.2563 -23.017
lfingers 7.12502
lthumb -0.667632 6.96171
rfemur 0.427662 32.1135 18.4732
rtibia -2.36007
rfoot -36.1976 -45.7533
rtoes 24.6884
lfemur -5.38697 -47.4509 -12.9847
ltibia -5.2324
lfoot -1.05841 42.4358
ltoes -1.15228
980
root 1.14797 17.5307 7.74989 11.3225 16.6117 -6.80351
lowerback 3.84252 6.50075 -1.15494
upperback -10.0668 8.75783 -0.712018
thorax -13.1324 4.31256 -1.47607
lowerneck -12.1072 -11.7966 -7.64001
upperneck 10.6531 -16.3073 11.4606
head 6.81682 -7.39089 3.14871
rclavicle 4.05024e-014 1.27222e-014
rhumerus 17.4972 1.75918 -80.8659
rradius 59.1626
rwrist 49.5743
rhand -31.8316 -48.4919
rfingers 7.12502
rthumb -5.08612 -78.4109
lclavicle 4.05024e-014 1.27222e-014
lhumerus -46.0183 -18.7079 93.9876
lradius 74.5233
lwrist 14.2825
lhand -27.6073 -23.4134
lfingers 7.12502
lthumb -1.0066 6.56401
rfemur 0.423952 32.7805 18.835
rtibia -2.45574
rfoot -37.4492 -46.1405
rtoes 25.627
lfemur -5.81127 -47.617 -12.3121
ltibia -5.29032
lfoot -0.577433 42.3561
ltoes -1.96907
981
root 1.14673 17.53 7.74441 11.3908 16.8219 -6.90684
lowerback 4.08711 6.37369 -0.867599
upperback -10.2059 8.61995 -0.705427
thorax -13.4028 4.21067 -1.64553
lowerneck -11.9106 -11.8765 -7.66344
upperneck 10.5857 -16.4182 11.4658
head 6.77497 -7.45501 3.15053
rclavicle 6.11263e-014 -8.74653e-015
rhumerus 18.2771 1.59407 -79.6426
rradius 59.9056
rwrist 50.308
rhand -33.2954 -48.8874
rfingers 7.12502
rthumb -6.49944 -78.7677
lclavicle 6.11263e-014 -8.74653e-015
lhumerus -46.2528 -18.8411 93.944
lradius 74.5065
lwrist 14.3234
lhand -28.0808 -24.257
lfingers 7.12502
lthumb -1.46394 5.71776
rfemur 0.506678 33.6188 19.037
rtibia -2.56239
rfoot -38.8963 -46.5352
rtoes 26.8248
lfemur -6.04114 -47.7518 -11.9355
ltibia -5.44861
lfoot -0.17144 42.2861
ltoes -2.63712
982
root 1.14483 17.5312 7.73902 11.51 17.0742 -6.87412
lowerback 4.40508 6.24672 -0.742228
upperback -10.3895 8.4654 -0.724194
thorax -13.7979 4.11135 -1.76753
lowerneck -11.6894 -11.9778 -7.81041
upperneck 10.528 -16.5479 11.5158
head 6.74845 -7.53034 3.18248
rclavicle -1.6201e-014 -1.03368e-014
rhumerus 19.0964 1.43495 -78.1292
rradius 60.3255
rwrist 50.9303
rhand -34.9832 -49.0293
rfingers 7.12502
rthumb -8.12853 -78.853
lclavicle -1.6201e-014 -1.03368e-014
lhumerus -46.4948 -18.9671 93.9594
lradius 74.4846
lwrist 14.3146
lhand -28.6108 -25.1856
lfingers 7.12502
lthumb -1.97578 4.78496
rfemur 0.566243 34.2512 19.0541
rtibia -2.68992
rfoot -40.2576 -46.8102
rtoes 27.8286
lfemur -6.32488 -47.9568 -11.6872
ltibia -5.54565
lfoot 0.15301 42.2347
ltoes -3.10543
983
root 1.1435 17.5339 7.73429 11.6733 17.3405 -6.75727
lowerback 4.60542 6.1426 -0.722762
upperback -10.5316 8.32923 -0.745473
thorax -14.0887 4.03491 -1.81865
lowerneck -11.4035 -12.1061 -8.16177
upperneck 10.3611 -16.6985 11.7243
head 6.71089 -7.6181 3.29504
rclavicle -2.28602e-014 -1.03368e-014
rhumerus 19.9557 1.27294 -76.4082
rradius 60.4678
rwrist 51.8042
rhand -36.4369 -48.9958
rfingers 7.12502
rthumb -9.53137 -78.7602
lclavicle -2.28602e-014 -1.03368e-014
lhumerus -46.6117 -19.1271 94.0248
lradius 74.4811
lwrist 14.3322
lhand -29.2054 -25.8524
lfingers 7.12502
lthumb -2.55005 4.11215
rfemur 0.587208 34.6828 18.9523
rtibia -2.80462
rfoot -41.3892 -47.0145
rtoes 28.5715
lfemur -6.69269 -48.1958 -11.5107
ltibia -5.52462
lfoot 0.25523 42.2073
ltoes -3.18948
984
root 1.14059 17.5365 7.73077 11.8381 17.6049 -6.60347
lowerback 4.62645 6.05131 -0.801449
upperback -10.5816 8.19988 -0.732662
thorax -14.1772 3.98098 -1.74919
lowerneck -11.3616 -12.1395 -8.1149
upperneck 10.3868 -16.7487 11.6687
head 6.70769 -7.64521 3.26637
rclavicle -6.69407e-014 1.27222e-014
rhumerus 20.8728 1.13914 -74.6139
rradius 60.2709
rwrist 52.9502
rhand -37.2619 -48.8621
rfingers 7.12502
rthumb -10.3273 -78.5885
lclavicle -6.69407e-014 1.27222e-014
lhumerus -46.5301 -19.2567 94.1116
lradius 74.4619
lwrist 14.3127
lhand -29.7497 -26.2715
lfingers 7.12502
lthumb -3.07576 3.68607
rfemur 0.621018 35.2301 18.8436
rtibia -2.87892
rfoot -42.6368 -47.2745
rtoes 29.387
lfemur -7.09742 -48.4382 -11.3535
ltibia -5.44537
lfoot 0.257563 42.1729
ltoes -3.16516
985
root 1.13689 17.5371 7.72746 11.8776 17.8977 -6.5576
lowerback 4.67402 5.9557 -0.738003
upperback -10.5893 8.08202 -0.694778
thorax -14.213 3.91974 -1.72892
lowerneck -11.1183 -12.252 -8.24385
upperneck 10.1069 -16.8507 11.5765
head 6.58927 -7.72516 3.26182
rclavicle 2.23633e-015 1.03368e-014
rhumerus 21.7425 1.02967 -72.8782
rradius 59.6889
rwrist 54.0515
rhand -37.5727 -48.6567
rfingers 7.12502
rthumb -10.6271 -78.368
lclavicle 2.23633e-015 1.03368e-014
lhumerus -46.393 -19.3576 94.1647
lradius 74.4548
lwrist 14.3785
lhand -30.1028 -26.783
lfingers 7.12502
lthumb -3.41671 3.16932
rfemur 0.751126 35.7682 18.9325
rtibia -2.90699
rfoot -43.9008 -47.4983
rtoes 30.1968
lfemur -7.42792 -48.6958 -11.133
ltibia -5.32182
lfoot 0.37259 42.1275
ltoes -3.35317
986
root 1.13359 17.5373 7.72357 11.7682 18.1845 -6.68152
lowerback 4.79702 5.85363 -0.46474
upperback -10.5921 7.98117 -0.642286
thorax -14.2612 3.84377 -1.81599
lowerneck -10.9816 -12.3261 -8.11056
upperneck 10.0489 -16.9538 11.4363
head 6.53294 -7.78725 3.19552
rclavicle -1.30701e-014 -1.66979e-014
rhumerus 22.4539 0.937887 -71.4107
rradius 58.8693
rwrist 54.8041
rhand -37.4488 -48.5432
rfingers 7.12502
rthumb -10.5076 -78.2605
lclavicle -1.30701e-014 -1.66979e-014
lhumerus -46.2823 -19.463 94.1481
lradius 74.4779
lwrist 14.5612
lhand -30.4319 -27.2443
lfingers 7.12502
lthumb -3.73455 2.70269
rfemur 0.926459 35.925 19.2323
rtibia -2.8983
rfoot -44.5918 -47.5621
rtoes 30.6426
lfemur -7.63726 -48.9211 -10.8101
ltibia -5.19181
lfoot 0.474363 42.0828
ltoes -3.59831
987
root 1.13028 17.5369 7.72154 11.5889 18.3739 -6.88135
lowerback 4.89 5.77812 -0.151219
upperback -10.5823 7.92296 -0.575912
thorax -14.272 3.78575 -1.91171
lowerneck -10.8959 -12.3744 -7.94115
upperneck 10.1058 -17.0275 11.2364
head 6.5098 -7.83251 3.10499
rclavicle -7.27552e-014 1.19271e-014
rhumerus 22.9375 1.06047 -70.0718
rradius 58.0051
rwrist 54.7537
rhand -36.7443 -48.4138
rfingers 7.12502
rthumb -9.82796 -78.1645
lclavicle -7.27552e-014 1.19271e-014
lhumerus -46.1603 -19.5306 94.1151
lradius 74.4809
lwrist 14.6533
lhand -30.867 -27.4592
lfingers 7.12502
lthumb -4.15473 2.48008
rfemur 1.07256 35.713 19.5784
rtibia -2.86735
rfoot -44.5109 -47.5097
rtoes 30.5905
lfemur -7.65807 -49.053 -10.5426
ltibia -5.13191
lfoot 0.561235 42.065
ltoes -3.85844
988
root 1.12688 17.5374 7.7228 11.5323 18.4087 -6.85381
lowerback 4.87202 5.75715 -0.111775
upperback -10.5714 7.90008 -0.560853
thorax -14.2441 3.77249 -1.9093
lowerneck -10.7625 -12.4106 -8.12601
upperneck 10.1534 -17.072 11.2975
head 6.52848 -7.86046 3.15028
rclavicle 4.69629e-014 -7.15625e-015
rhumerus 23.1918 1.50449 -68.6752
rradius 57.2857
rwrist 53.796
rhand -35.3177 -47.8475
rfingers 7.12502
rthumb -8.45138 -77.6584
lclavicle 4.69629e-014 -7.15625e-015
lhumerus -46.0079 -19.4969 94.1258
lradius 74.4256
lwrist 14.6029
lhand -31.234 -27.6195
lfingers 7.12502
lthumb -4.50911 2.31253
rfemur 1.12185 35.431 19.5845
rtibia -2.86461
rfoot -44.0818 -47.4547
rtoes 30.3032
lfemur -7.5792 -49.0968 -10.624
ltibia -5.12196
lfoot 0.631493 42.1055
ltoes -4.07843
989
root 1.12393 17.5398 7.72574 11.6183 18.3239 -6.5903
lowerback 4.77337 5.773 -0.315163
upperback -10.5811 7.88922 -0.628186
thorax -14.2128 3.78616 -1.86073
lowerneck -10.614 -12.4003 -8.18238
upperneck 10.1396 -17.072 11.3939
head 6.51328 -7.86222 3.19653
rclavicle -1.09829e-014 -4.85035e-014
rhumerus 23.215 2.08392 -67.4495
rradius 56.7321
rwrist 52.4965
rhand -33.2762 -46.5302
rfingers 7.12502
rthumb -6.48083 -76.4111
lclavicle -1.09829e-014 -4.85035e-014
lhumerus -45.8918 -19.5162 94.1281
lradius 74.401
lwrist 14.5115
lhand -31.4494 -27.5395
lfingers 7.12502
lthumb -4.71713 2.38795
rfemur 1.08416 35.1976 19.2515
rtibia -2.89419
rfoot -43.6475 -47.3951
rtoes 30.0694
lfemur -7.46976 -49.0802 -11.0111
ltibia -5.11994
lfoot 0.515993 42.1783
ltoes -3.94795
990
root 1.12118 17.5399 7.7286 11.5703 18.2129 -6.52356
lowerback 4.75811 5.79367 -0.315045
upperback -10.5808 7.91519 -0.642954
thorax -14.2002 3.79772 -1.87915
lowerneck -10.5697 -12.3539 -8.14774
upperneck 10.2372 -17.0213 11.3548
head 6.52507 -7.83818 3.18712
rclavicle -8.44835e-015 -2.38542e-014
rhumerus 23.046 2.75266 -66.395
rradius 56.2876
rwrist 51.258
rhand -31.4998 -44.1662
rfingers 7.12502
rthumb -4.76572 -74.0926
lclavicle -8.44835e-015 -2.38542e-014
lhumerus -45.8027 -19.5626 94.0966
lradius 74.4251
lwrist 14.3966
lhand -31.3779 -27.2806
lfingers 7.12502
lthumb -4.648 2.64837
rfemur 1.12099 34.9985 19.1936
rtibia -2.88149
rfoot -43.1975 -47.3193
rtoes 29.8162
lfemur -7.18977 -49.0121 -11.2978
ltibia -5.17133
lfoot 0.426586 42.225
ltoes -3.8709
